<svg xmlns="http://www.w3.org/2000/svg" xmlns:xlink="http://www.w3.org/1999/xlink" viewBox="0 0 400 400"><defs><style>.cls-1{fill:#0f758c;}.cls-2{fill:url(#linear-gradient);}.cls-3{fill:url(#linear-gradient-2);}.cls-4{fill:url(#linear-gradient-3);}.cls-5{opacity:0.24;fill:url(#linear-gradient-4);}.cls-6{fill:url(#linear-gradient-5);}.cls-7{fill:url(#linear-gradient-6);}.cls-8{fill:url(#linear-gradient-7);}.cls-10,.cls-9{fill:none;stroke-miterlimit:10;}.cls-9{stroke:url(#linear-gradient-8);}.cls-10{stroke:url(#linear-gradient-9);}.cls-11{fill:url(#linear-gradient-10);}</style><linearGradient id="linear-gradient" x1="313.46" y1="192.07" x2="283.73" y2="192.07" gradientUnits="userSpaceOnUse"><stop offset="0" stop-color="#32c0cb"/><stop offset="1" stop-color="#50bb7f"/></linearGradient><linearGradient id="linear-gradient-2" x1="111.8" y1="219.48" x2="87.44" y2="219.48" xlink:href="#linear-gradient"/><linearGradient id="linear-gradient-3" x1="320.04" y1="136.91" x2="125.52" y2="136.91" gradientUnits="userSpaceOnUse"><stop offset="0" stop-color="#8361a9"/><stop offset="0.27" stop-color="#746ab0"/><stop offset="0.78" stop-color="#4d82c3"/><stop offset="1" stop-color="#3b8dcc"/></linearGradient><linearGradient id="linear-gradient-4" x1="125.52" y1="136.91" x2="320.04" y2="136.91" gradientUnits="userSpaceOnUse"><stop offset="0" stop-color="#448ac9"/><stop offset="0" stop-color="#4488c7"/><stop offset="0.09" stop-color="#496db0"/><stop offset="0.18" stop-color="#4c569d"/><stop offset="0.28" stop-color="#4f448e"/><stop offset="0.41" stop-color="#513884"/><stop offset="0.58" stop-color="#52317e"/><stop offset="1" stop-color="#522f7c"/></linearGradient><linearGradient id="linear-gradient-5" x1="111.13" y1="214.27" x2="285.05" y2="214.27" gradientUnits="userSpaceOnUse"><stop offset="0" stop-color="#78cccb"/><stop offset="0.18" stop-color="#6cbdbf"/><stop offset="0.53" stop-color="#4b969e"/><stop offset="1" stop-color="#17586b"/></linearGradient><linearGradient id="linear-gradient-6" x1="111.82" y1="213.97" x2="285.73" y2="213.97" gradientUnits="userSpaceOnUse"><stop offset="0" stop-color="#4ac2c0"/><stop offset="0.17" stop-color="#43b3b3"/><stop offset="0.5" stop-color="#318c91"/><stop offset="0.94" stop-color="#144e5a"/><stop offset="1" stop-color="#104553"/></linearGradient><linearGradient id="linear-gradient-7" x1="63.35" y1="162.15" x2="266.29" y2="162.15" xlink:href="#linear-gradient"/><linearGradient id="linear-gradient-8" x1="62.85" y1="163.99" x2="267.64" y2="163.99" xlink:href="#linear-gradient"/><linearGradient id="linear-gradient-9" x1="72.67" y1="153.32" x2="193.66" y2="153.32" xlink:href="#linear-gradient"/><linearGradient id="linear-gradient-10" x1="148.35" y1="237.85" x2="336.65" y2="237.85" gradientUnits="userSpaceOnUse"><stop offset="0" stop-color="#50bb7f"/><stop offset="1" stop-color="#32c0cb"/></linearGradient></defs><g id="Layer_2" data-name="Layer 2"><path class="cls-1" d="M193.19,222.73s-25.9,7.37-33,42.78a66.15,66.15,0,0,1-3.67,12.16c-8.65,21-28.58,35.22-51.2,37.52-9.17.93-20.33.83-29-3.11,0,0,18.78,5.23,33-37.54s49.43-49,49.43-49Z"/><path class="cls-2" d="M283.73,146s15.79-5.27,21.06-12.72c0,0,26.31,60.52-12.72,117.54C292.07,250.84,322.87,194.25,283.73,146Z"/><path class="cls-3" d="M92.07,170.14s-12.28,49.12,19.73,77.63l-8.77,21S77.16,227.59,92.07,170.14Z"/><path class="cls-4" d="M319.37,80.11S308,97.22,229.9,111.69c-20.75,3.85-37.41,10.11-50.69,17.24a112.94,112.94,0,0,0-53.69,64.78h0s18.7-22.37,74.26-30.27a246.44,246.44,0,0,0,77.31-24.61,92.38,92.38,0,0,0,33.05-28.32C316.69,101.31,321.94,90.18,319.37,80.11Z"/><path class="cls-5" d="M125.52,193.71s18.7-22.37,74.26-30.27a246.44,246.44,0,0,0,77.31-24.61,92.38,92.38,0,0,0,33.05-28.32c6.55-9.2,11.8-20.33,9.23-30.4l-.31.23a77,77,0,0,0-17.44,17.49c-11.22,15.51-39,46.23-88.9,56.92-4.85,1-9.75,1.8-14.68,2.4C188.11,158.36,148.12,164.9,125.52,193.71Z"/><path class="cls-6" d="M285.05,159.8c.55-1.6-78.51,19.92-91.34,22.3a85.27,85.27,0,0,0-19,5.87A104.73,104.73,0,0,0,117,250.6c-2,5.74-4.18,12.45-5.88,18.22,0,0,25.55-31.12,75.69-39.67S266.4,187.8,266.4,187.8,281.24,170.68,285.05,159.8Z"/><path class="cls-7" d="M111.82,268.49s25.55-31.12,75.69-39.68,79.58-41.34,79.58-41.34,14.84-17.13,18.64-28c0,0-45.92,52.58-99.41,60.66S111.82,268.49,111.82,268.49Z"/><path class="cls-8" d="M266.29,92.27l-34,8.82a123.23,123.23,0,0,0-38.65-6.16c-66.55,0-120.49,52.51-120.49,117.28a114.18,114.18,0,0,0,6.2,37.21,107.38,107.38,0,0,1-16-56.26c0-65.32,59.69-118.28,133.31-118.28A145.44,145.44,0,0,1,266.29,92.27Z"/><path class="cls-9" d="M193.66,94.93a123.23,123.23,0,0,1,38.65,6.16l34-8.82a145.44,145.44,0,0,0-69.63-17.39c-73.62,0-133.31,53-133.31,118.28a107.38,107.38,0,0,0,16,56.26,114.18,114.18,0,0,1-6.2-37.21"/><path class="cls-10" d="M73.17,212.21c0-64.77,53.94-117.28,120.49-117.28"/><path class="cls-11" d="M148.35,311.2a132.28,132.28,0,0,0,59.37,13.93c71.2,0,128.93-55.65,128.93-124.3,0-23.16-1.85-31.7-13.29-50.26,7.37,14.56,6.76,17.66,6.76,34.79,0,62.78-55.3,113.68-123.52,113.68A132.24,132.24,0,0,1,158,289.91Z"/></g></svg>